<?xml version="1.0" encoding="utf-8"?>
<!-- Generator: Adobe Illustrator 16.0.0, SVG Export Plug-In . SVG Version: 6.00 Build 0)  -->
<!DOCTYPE svg PUBLIC "-//W3C//DTD SVG 1.1//EN" "http://www.w3.org/Graphics/SVG/1.1/DTD/svg11.dtd">
<svg version="1.1" id="Layer_1" xmlns="http://www.w3.org/2000/svg" xmlns:xlink="http://www.w3.org/1999/xlink" x="0px" y="0px"
	 width="224.867px" height="293.305px" viewBox="0 0 224.867 293.305" enable-background="new 0 0 224.867 293.305"
	 xml:space="preserve">
<image display="none" overflow="visible" width="768" height="613" xlink:href="cutecat.png"  transform="matrix(1.3561 0 0 1.3561 -408.2979 -214.6348)">
</image>
<path fill="#FFFFFF" d="M4.32,184.623c3.707,57.119,51.401,103.64,108.64,103.64c57.238,0,105.392-47.492,108.64-104.64
	c2.973-52.303-18.579-104.022-49.239-135.151c-4.587-4.657,1.903-42.523-3.04-46.191c-5.07-3.763-21.583,26.7-26.919,24.12
	c-9.906-4.79-20.172-7.416-30.441-7.417c-10.166,0-20.273,2.794-29.996,7.822C77.13,29.306,60.924-0.967,56.32,2.568
	c-5.611,4.311,0.447,42.664-4.688,48.286C21.758,83.562,1.188,136.355,4.32,184.623z"/>
<path fill="#FBAE5E" d="M142.314,29.36c0,0-5.129,62.843-20.066,75.379c-20.649,17.33-107.434,9.246-107.434,9.246l36.313-61.589
	L55.814,4.11l25.434,26.541l29.267-9.041L142.314,29.36z"/>
<path fill="#E89549" d="M96.939,26.027c0,0,0.618,12.75,0,16.583c-0.23,1.432-3.176,3.441-4.625,3.5
	c-1.628,0.066-5.244-1.891-5.5-3.5c-0.584-3.667,0-9.813,0-13.083c0,0,1.083-1,4.667-2.25C95.28,25.952,96.939,26.027,96.939,26.027
	z"/>
<path fill="#E89549" d="M126.497,26.027c0,0-0.618,12.75,0,16.583c0.23,1.432,3.176,3.441,4.625,3.5
	c1.628,0.066,5.243-1.891,5.499-3.5c0.584-3.667,0-9.813,0-13.083c0,0-1.083-1-4.667-2.25
	C128.156,25.952,126.497,26.027,126.497,26.027z"/>
<path fill="#E89549" d="M116.564,24.277c0,0-0.133,15.167-0.75,19c-0.23,1.432-2.416,3.584-5.5,3.583
	c-1.63-0.001-5.244-1.891-5.5-3.5c-0.584-3.667-0.26-15.813-0.26-19.083c0,0,2.673-0.551,5.96-0.583
	C115.231,23.648,116.564,24.277,116.564,24.277z"/>
<path fill="none" stroke="#97633D" stroke-width="7" stroke-miterlimit="10" d="M3.814,186.165
	c3.707,57.119,51.401,103.64,108.64,103.64c57.238,0,105.392-47.492,108.64-104.64c2.973-52.303-18.579-104.022-49.239-135.151
	c-4.587-4.657,1.903-42.523-3.04-46.191c-5.07-3.763-21.583,26.7-26.919,24.12c-9.906-4.79-20.172-7.416-30.441-7.417
	c-10.166,0-20.273,2.794-29.996,7.822c-4.834,2.5-21.041-27.773-25.644-24.238c-5.611,4.311,0.447,42.664-4.688,48.286
	C21.252,85.104,0.683,137.897,3.814,186.165z"/>
<polygon fill="#965F3A" points="61.314,20.61 71.314,32.11 61.314,42.61 "/>
<g id="Layer_2">
	<polygon fill="#965F3A" points="164.314,42.61 164.314,20.61 154.314,31.61 	"/>
</g>
<line fill="none" stroke="#955F3B" stroke-width="3" stroke-miterlimit="10" x1="50.314" y1="110.11" x2="23.814" y2="98.61"/>
<line fill="none" stroke="#955F3B" stroke-width="3" stroke-miterlimit="10" x1="44.814" y1="129.057" x2="11.314" y2="127.619"/>
<line fill="none" stroke="#955F3B" stroke-width="3" stroke-miterlimit="10" x1="211.314" y1="128.338" x2="181.314" y2="128.338"/>
<line fill="none" stroke="#955F3B" stroke-width="3" stroke-miterlimit="10" x1="202.314" y1="98.61" x2="176.314" y2="109.36"/>
<line fill="none" stroke="#955F3B" stroke-width="3" stroke-miterlimit="10" x1="208.314" y1="113.11" x2="180.193" y2="118.485"/>
<line fill="none" stroke="#955F3B" stroke-width="3" stroke-miterlimit="10" x1="44.814" y1="118.485" x2="14.814" y2="112.735"/>
<path fill="#2A8635" d="M75.411,96.439c-2.125,0-3.847-1.722-3.847-3.847c0-0.667,0.186-1.286,0.484-1.833
	c-3.051,0.14-5.484,2.651-5.484,5.737c0,3.176,2.574,5.75,5.75,5.75s5.75-2.574,5.75-5.75c0-0.358-0.037-0.707-0.1-1.046
	C77.284,96.059,76.396,96.439,75.411,96.439z"/>
<path fill="#2A8635" d="M157.411,96.439c-2.124,0-3.847-1.722-3.847-3.847c0-0.667,0.186-1.286,0.484-1.833
	c-3.051,0.14-5.484,2.651-5.484,5.737c0,3.176,2.574,5.75,5.75,5.75s5.75-2.574,5.75-5.75c0-0.358-0.037-0.707-0.1-1.046
	C159.284,96.059,158.396,96.439,157.411,96.439z"/>
<path fill="none" stroke="#955F3B" stroke-width="6" stroke-miterlimit="10" d="M49.606,145.11c0,0-1.831,33.781,0.708,43.5
	c3.25,12.438,8.995,13.253,13.5,12.407c7.5-1.407,10.207-7.201,11.5-10.407c4.314-10.698,2.75-24.465,2.75-36"/>
<path fill="none" stroke="#955F3B" stroke-width="6" stroke-miterlimit="10" d="M178.421,141.099c0,0,0.194,37.853-0.708,42.961
	c-1.398,7.912-4.34,12.595-8.92,12.424c-3.455-0.128-10.521-0.43-14.479-6.623c-5.75-9-4.352-27.987-4.352-39.379"/>
<path fill="#955F3B" d="M102.939,98.61c-0.123-5.5,17.375-7.851,19,0c0.639,3.087-6.413,8.704-9.485,7.992
	C107.897,105.546,103.01,101.763,102.939,98.61z"/>
<path fill="none" stroke="#955F3B" stroke-miterlimit="10" d="M128.314,113.985"/>
<path fill="none" stroke="#955F3B" stroke-miterlimit="10" d="M128.314,113.985c-2.225,3.166-15.25,2.625-15.25,2.625
	s-15.2,1.354-16.125-2.625"/>
<line fill="none" stroke="#955F3B" stroke-miterlimit="10" x1="112.939" y1="106.664" x2="113.064" y2="116.61"/>
<path fill="#E89549" d="M91.877,27.86"/>
</svg>
