<?xml version="1.0" encoding="utf-8"?>
<!-- Generator: Adobe Illustrator 23.0.3, SVG Export Plug-In . SVG Version: 6.00 Build 0)  -->
<svg version="1.1" id="Layer_1" xmlns="http://www.w3.org/2000/svg" xmlns:xlink="http://www.w3.org/1999/xlink" x="0px" y="0px"
	 viewBox="0 0 216.851 292.237" enable-background="new 0 0 216.851 292.237" xml:space="preserve">
<image display="none" overflow="visible" width="768" height="613" xlink:href="21F8DBE9.jpg"  transform="matrix(1.3561 0 0 1.3561 -412.1123 -268.635)">
</image>
<rect x="-3.815" y="-54" display="none" fill="#9E2323" stroke="#000000" stroke-miterlimit="10" width="224.867" height="293.305"/>
<polygon fill="#FFFFFF" points="36.165,255.828 18.273,273.78 28.915,291.53 69.415,273.78 "/>
<path fill="#E2E2E2" d="M202.316,265.806c-2.75,1.643,1.352,15.305-24.692,14.3c0,0,9.405,2.765,16.854,2.118
	C206.001,281.224,204.726,264.367,202.316,265.806z"/>
<polygon fill="#FFFFFF" points="181,245.61 159.735,275.034 186.834,285.11 204.966,269.61 "/>
<path fill="#FFFFFF" d="M6.543,183.106c3.945,57.104,45.364,93.156,102.602,93.156c57.238,0,95.518-35.688,101.129-92.652
	c8.226-83.496-7.068-101.009-37.728-132.139c-4.587-4.657-2.097-45.523-7.04-49.191c-5.07-3.763-21.583,26.7-26.919,24.12
	c-9.906-4.79-20.172-7.416-30.441-7.416c-10.166,0-20.273,2.794-29.996,7.822c-4.835,2.5-21.041-27.773-25.644-24.238
	c-5.611,4.311,0.447,42.664-4.688,48.286C17.943,83.562,1.5,110.11,6.543,183.106z"/>
<path fill="#FBAE5E" d="M139.946,26.734c0,0-5.129,62.843-20.066,75.379c-20.649,17.33-111.434,9.246-111.434,9.246l14.843-34.692
	L41,53.61l7.946-49.975l29.934,24.389l29.266-9.041L139.946,26.734z"/>
<path fill="#E89549" d="M93.125,26.027c0,0,0.618,12.75,0,16.583c-0.231,1.432-3.176,3.441-4.625,3.5
	c-1.628,0.066-5.244-1.891-5.5-3.5c-0.584-3.666,0-9.812,0-13.083c0,0,1.083-1,4.667-2.25
	C91.465,25.952,93.125,26.027,93.125,26.027z"/>
<path fill="#E89549" d="M122.683,26.027c0,0-0.618,12.75,0,16.583c0.23,1.432,3.176,3.441,4.625,3.5
	c1.628,0.066,5.243-1.891,5.499-3.5c0.584-3.666,0-9.812,0-13.083c0,0-1.083-1-4.667-2.25
	C124.342,25.952,122.683,26.027,122.683,26.027z"/>
<path fill="#E89549" d="M112.75,24.277c0,0-0.133,15.167-0.75,19c-0.231,1.432-2.416,3.585-5.5,3.583
	c-1.63-0.001-5.244-1.891-5.5-3.5c-0.584-3.666-0.26-15.812-0.26-19.083c0,0,2.673-0.551,5.96-0.583
	C111.417,23.648,112.75,24.277,112.75,24.277z"/>
<path fill="#E2E2E2" d="M146,265.723c-30.475,6.294-60.125,3.137-72.474,3.26c0,0,29.154,6.694,36.619,6.279
	C129.132,274.208,153.003,264.277,146,265.723z"/>
<path fill="#E2E2E2" d="M20.003,274.02c1.593,11.693,20.497,10.055,20.497,10.055s-15.404,7.82-20.645,2.487
	C16.377,283.022,19.669,271.568,20.003,274.02z"/>
<path fill="none" stroke="#97633D" stroke-width="7" stroke-miterlimit="10" d="M3.5,164.11c0,85.5,47.901,111.694,105.14,111.694
	c57.238,0,101.36-35.194,104.334-102.887c2.566-58.399-7.689-90.678-38.35-121.808c-4.587-4.657-4.681-43.62-9.624-47.288
	c-5.07-3.763-21.583,26.7-26.919,24.12c-9.906-4.79-20.172-7.416-30.441-7.416c-10.166,0-20.273,2.794-29.996,7.822
	C72.81,30.848,56.603,0.575,52,4.11c-5.611,4.311-5.866,43.878-11,49.5C11.125,86.318,3.5,115.741,3.5,164.11z"/>
<polygon fill="#965F3A" points="57.5,20.61 67.5,32.11 57.5,42.61 "/>
<g id="Layer_2">
	<polygon fill="#965F3A" points="160.5,42.61 160.5,20.61 150.5,31.61 	"/>
</g>
<line fill="none" stroke="#955F3B" stroke-width="3" stroke-miterlimit="10" x1="46.5" y1="110.11" x2="26" y2="101.214"/>
<line fill="none" stroke="#955F3B" stroke-width="3" stroke-miterlimit="10" x1="41" y1="129.056" x2="15.5" y2="127.619"/>
<line fill="none" stroke="#955F3B" stroke-width="3" stroke-miterlimit="10" x1="202.5" y1="128.338" x2="177.5" y2="128.338"/>
<line fill="none" stroke="#955F3B" stroke-width="3" stroke-miterlimit="10" x1="194.861" y1="100.115" x2="172.5" y2="109.36"/>
<line fill="none" stroke="#955F3B" stroke-width="3" stroke-miterlimit="10" x1="199.922" y1="113.985" x2="176.379" y2="118.485"/>
<line fill="none" stroke="#955F3B" stroke-width="3" stroke-miterlimit="10" x1="41" y1="118.485" x2="17.521" y2="113.985"/>
<path fill="#2A8635" d="M74.693,96.376c-4.249,0-7.693-3.444-7.693-7.693c0-1.335,0.371-2.572,0.969-3.667
	C61.866,85.295,57,90.317,57,96.489c0,6.352,5.148,11.5,11.5,11.5c6.352,0,11.5-5.148,11.5-11.5c0-0.716-0.074-1.413-0.199-2.092
	C78.439,95.614,76.663,96.376,74.693,96.376z"/>
<path fill="none" stroke="#955F3B" stroke-width="6" stroke-miterlimit="10" d="M45.791,145.11c0,0-1.831,33.781,0.709,43.5
	c3.25,12.438,8.995,13.253,13.5,12.407c7.5-1.407,10.207-7.201,11.5-10.407c4.314-10.698,2.75-24.465,2.75-36"/>
<path fill="none" stroke="#955F3B" stroke-width="6" stroke-miterlimit="10" d="M174.606,141.098c0,0,0.194,37.852-0.708,42.961
	c-1.398,7.912-7.34,12.595-11.92,12.424c-3.455-0.128-7.521-0.43-11.478-6.623c-5.75-9-4.352-27.987-4.352-39.379"/>
<path fill="#955F3B" d="M99.125,98.61c-0.123-5.5,17.375-7.851,19,0c0.639,3.087-6.413,8.704-9.485,7.992
	C104.082,105.546,99.195,101.762,99.125,98.61z"/>
<path fill="none" stroke="#955F3B" stroke-miterlimit="10" d="M124.5,113.985"/>
<path fill="none" stroke="#955F3B" stroke-miterlimit="10" d="M124.5,113.985c-2.225,3.166-15.25,2.625-15.25,2.625
	s-15.2,1.354-16.125-2.625"/>
<line fill="none" stroke="#955F3B" stroke-miterlimit="10" x1="109.125" y1="106.664" x2="109.25" y2="116.61"/>
<path fill="#E89549" d="M88.062,27.86"/>
<path fill="#2A8635" d="M157.693,96.439c-4.249,0-7.693-3.444-7.693-7.693c0-1.335,0.371-2.572,0.969-3.667
	C144.866,85.358,140,90.38,140,96.552c0,6.352,5.148,11.5,11.5,11.5c6.352,0,11.5-5.148,11.5-11.5c0-0.716-0.074-1.413-0.199-2.092
	C161.439,95.677,159.663,96.439,157.693,96.439z"/>
<path fill="none" stroke="#97633D" stroke-width="7" stroke-miterlimit="10" d="M36.194,252.569c0,0-16.177,14.565-18.673,20.468
	c-0.993,2.349-2.521,8.573,2,13.073c3.34,3.324,12.059,2.786,16.729,2.152C44.886,287.09,74.5,271.1,74.5,271.1"/>
<path fill="none" stroke="#97633D" stroke-width="7" stroke-miterlimit="10" d="M184.622,247.265c0,0,11.568,10.651,17.694,18.541
	c1.563,2.014,6.03,11.194-2.021,16c-1.585,0.946-10.295,3.183-18.729,1.152c-5.08-1.223-35.25-13.162-35.25-13.162"/>
<polygon fill="#FFFFFF" points="45.153,248.373 27.261,266.325 37.903,284.075 78.403,266.325 "/>
<polygon fill="#FFFFFF" points="170.5,238.11 184.375,251.942 174.624,276.803 133.066,261.11 "/>
<path fill="none" stroke="#97633D" stroke-width="7" stroke-miterlimit="10" d="M45.153,226.11"/>
<path fill="none" stroke="#955F3B" stroke-width="3" stroke-miterlimit="10" d="M14.5,283.596"/>
<path fill="none" stroke="#955F3B" stroke-width="3" stroke-miterlimit="10" d="M21.25,288.55"/>
</svg>
