<?xml version="1.0" encoding="utf-8"?>
<!-- Generator: Adobe Illustrator 16.0.0, SVG Export Plug-In . SVG Version: 6.00 Build 0)  -->
<!DOCTYPE svg PUBLIC "-//W3C//DTD SVG 1.1//EN" "http://www.w3.org/Graphics/SVG/1.1/DTD/svg11.dtd">
<svg version="1.1" id="Layer_1" xmlns="http://www.w3.org/2000/svg" xmlns:xlink="http://www.w3.org/1999/xlink" x="0px" y="0px"
	 width="224.867px" height="293.305px" viewBox="0 0 224.867 293.305" enable-background="new 0 0 224.867 293.305"
	 xml:space="preserve">
<image display="none" overflow="visible" width="768" height="613" xlink:href="cutecat.png"  transform="matrix(1.3561 0 0 1.3561 -408.2979 -214.6348)">
</image>
<path fill="#FFFFFF" d="M12.357,183.106c3.707,57.119,43.364,93.156,100.603,93.156c57.238,0,97.881-35.505,101.129-92.652
	c2.973-52.303-11.068-104.009-41.729-135.139c-4.587-4.657,1.903-42.523-3.04-46.191c-5.07-3.763-21.583,26.7-26.919,24.12
	c-9.906-4.79-20.172-7.416-30.441-7.417c-10.166,0-20.273,2.794-29.996,7.822C77.13,29.306,60.924-0.967,56.32,2.568
	c-5.611,4.311,0.447,42.664-4.688,48.286C21.758,83.562,9.226,134.838,12.357,183.106z"/>
<path fill="#FBAE5E" d="M143.761,26.734c0,0-5.129,62.843-20.066,75.379c-20.649,17.33-111.434,9.246-111.434,9.246l14.843-34.692
	L44.814,53.61L52.76,3.636l29.934,24.389l29.266-9.041L143.761,26.734z"/>
<path fill="#E89549" d="M96.939,26.027c0,0,0.618,12.75,0,16.583c-0.23,1.432-3.176,3.441-4.625,3.5
	c-1.628,0.066-5.244-1.891-5.5-3.5c-0.584-3.667,0-9.813,0-13.083c0,0,1.083-1,4.667-2.25C95.28,25.952,96.939,26.027,96.939,26.027
	z"/>
<path fill="#E89549" d="M126.497,26.027c0,0-0.618,12.75,0,16.583c0.23,1.432,3.176,3.441,4.625,3.5
	c1.628,0.066,5.243-1.891,5.499-3.5c0.584-3.667,0-9.813,0-13.083c0,0-1.083-1-4.667-2.25
	C128.156,25.952,126.497,26.027,126.497,26.027z"/>
<path fill="#E89549" d="M116.564,24.277c0,0-0.133,15.167-0.75,19c-0.23,1.432-2.416,3.584-5.5,3.583
	c-1.63-0.001-5.244-1.891-5.5-3.5c-0.584-3.667-0.26-15.813-0.26-19.083c0,0,2.673-0.551,5.96-0.583
	C115.231,23.648,116.564,24.277,116.564,24.277z"/>
<path fill="#E2E2E2" d="M207.067,270.198c-6.216,7.086-14.433,12.039-14.433,12.039s9.789,5.316,13.688-0.001
	C208.911,278.707,209.594,267.318,207.067,270.198z"/>
<path fill="#E2E2E2" d="M20.67,276.188c8.353,2.356,19.395,12.074,19.395,12.074s-13.154,5.332-18.395-0.001
	C18.191,284.722,15.893,274.841,20.67,276.188z"/>
<path fill="none" stroke="#97633D" stroke-width="7" stroke-miterlimit="10" d="M7.314,164.11c0,85.5,47.901,111.694,105.14,111.694
	c57.238,0,101.36-35.194,104.334-102.887c2.565-58.399-7.689-90.678-38.35-121.808c-4.587-4.657-4.681-43.62-9.624-47.288
	c-5.07-3.763-21.583,26.7-26.919,24.12c-9.906-4.79-20.172-7.416-30.441-7.417c-10.166,0-20.273,2.794-29.996,7.822
	c-4.834,2.5-21.041-27.773-25.644-24.238c-5.611,4.311-5.866,43.878-11,49.5C14.939,86.318,7.314,115.741,7.314,164.11z"/>
<polygon fill="#965F3A" points="61.314,20.61 71.314,32.11 61.314,42.61 "/>
<g id="Layer_2">
	<polygon fill="#965F3A" points="164.314,42.61 164.314,20.61 154.314,31.61 	"/>
</g>
<line fill="none" stroke="#955F3B" stroke-width="3" stroke-miterlimit="10" x1="50.314" y1="110.11" x2="29.814" y2="101.214"/>
<line fill="none" stroke="#955F3B" stroke-width="3" stroke-miterlimit="10" x1="44.814" y1="129.057" x2="19.314" y2="127.619"/>
<line fill="none" stroke="#955F3B" stroke-width="3" stroke-miterlimit="10" x1="206.314" y1="128.338" x2="181.314" y2="128.338"/>
<line fill="none" stroke="#955F3B" stroke-width="3" stroke-miterlimit="10" x1="198.676" y1="100.115" x2="176.314" y2="109.36"/>
<line fill="none" stroke="#955F3B" stroke-width="3" stroke-miterlimit="10" x1="203.736" y1="113.985" x2="180.193" y2="118.485"/>
<line fill="none" stroke="#955F3B" stroke-width="3" stroke-miterlimit="10" x1="44.814" y1="118.485" x2="21.336" y2="113.985"/>
<path fill="#2A8635" d="M78.508,96.376c-4.249,0-7.693-3.444-7.693-7.693c0-1.335,0.371-2.572,0.969-3.667
	c-6.103,0.279-10.969,5.302-10.969,11.474c0,6.352,5.148,11.5,11.5,11.5s11.5-5.148,11.5-11.5c0-0.716-0.074-1.413-0.199-2.092
	C82.254,95.614,80.478,96.376,78.508,96.376z"/>
<path fill="none" stroke="#955F3B" stroke-width="6" stroke-miterlimit="10" d="M49.606,145.11c0,0-1.831,33.781,0.708,43.5
	c3.25,12.438,8.995,13.253,13.5,12.407c7.5-1.407,10.207-7.201,11.5-10.407c4.314-10.698,2.75-24.465,2.75-36"/>
<path fill="none" stroke="#955F3B" stroke-width="6" stroke-miterlimit="10" d="M178.421,141.099c0,0,0.194,37.853-0.708,42.961
	c-1.398,7.912-4.34,12.595-8.92,12.424c-3.455-0.128-10.521-0.43-14.479-6.623c-5.75-9-4.352-27.987-4.352-39.379"/>
<path fill="#955F3B" d="M102.939,98.61c-0.123-5.5,17.375-7.851,19,0c0.639,3.087-6.413,8.704-9.485,7.992
	C107.897,105.546,103.01,101.763,102.939,98.61z"/>
<path fill="none" stroke="#955F3B" stroke-miterlimit="10" d="M128.314,113.985"/>
<path fill="none" stroke="#955F3B" stroke-miterlimit="10" d="M128.314,113.985c-2.225,3.166-15.25,2.625-15.25,2.625
	s-15.2,1.354-16.125-2.625"/>
<line fill="none" stroke="#955F3B" stroke-miterlimit="10" x1="112.939" y1="106.664" x2="113.064" y2="116.61"/>
<path fill="#E89549" d="M91.877,27.86"/>
<path fill="#2A8635" d="M161.508,96.439c-4.249,0-7.693-3.444-7.693-7.693c0-1.335,0.371-2.572,0.969-3.667
	c-6.103,0.279-10.969,5.302-10.969,11.474c0,6.352,5.148,11.5,11.5,11.5s11.5-5.148,11.5-11.5c0-0.716-0.074-1.413-0.199-2.092
	C165.254,95.677,163.478,96.439,161.508,96.439z"/>
<path fill="none" stroke="#97633D" stroke-width="7" stroke-miterlimit="10" d="M40.009,252.569c0,0-16.177,14.565-18.673,20.468
	c-0.993,2.349-2.521,8.573,2,13.073c3.34,3.324,12.059,2.786,16.729,2.152c8.636-1.173,38.25-17.162,38.25-17.162"/>
<path fill="none" stroke="#97633D" stroke-width="7" stroke-miterlimit="10" d="M186.437,250.266c0,0,11.568,8.651,17.694,16.541
	c1.563,2.014,8.03,10.194-0.021,15c-6.685,3.99-15.976,2.604-18.729,1.152c-4.621-2.438-31.25-13.162-31.25-13.162"/>
<polygon fill="#FFFFFF" points="48.967,249.373 31.075,266.325 40.717,284.075 82.217,266.325 "/>
<polygon fill="#FFFFFF" points="168.693,233.92 187.314,256.407 178.438,275.263 136.881,259.11 "/>
<path fill="none" stroke="#97633D" stroke-width="7" stroke-miterlimit="10" d="M48.967,226.11"/>
<path fill="none" stroke="#955F3B" stroke-width="3" stroke-miterlimit="10" d="M18.314,283.596"/>
<path fill="none" stroke="#955F3B" stroke-width="3" stroke-miterlimit="10" d="M25.064,288.55"/>
</svg>
